<svg width="48" height="48" viewBox="0 0 48 48" fill="none" xmlns="http://www.w3.org/2000/svg">
<path d="M31.5 41C31.5 41.4538 31.2896 42.0152 30.6411 42.6657C29.9866 43.3221 28.9642 43.9823 27.5814 44.5689C24.8217 45.7397 20.9048 46.5 16.5 46.5C12.0952 46.5 8.1783 45.7397 5.41856 44.5689C4.03581 43.9823 3.01341 43.3221 2.35891 42.6657C1.71042 42.0152 1.5 41.4538 1.5 41C1.5 40.5462 1.71042 39.9848 2.35891 39.3343C3.01341 38.6779 4.03581 38.0177 5.41856 37.4311C8.1783 36.2603 12.0952 35.5 16.5 35.5C20.9048 35.5 24.8217 36.2603 27.5814 37.4311C28.9642 38.0177 29.9866 38.6779 30.6411 39.3343C31.2896 39.9848 31.5 40.5462 31.5 41Z" stroke="#152C58" stroke-width="3"/>
<path d="M28.5 15.1579C28.5 19.085 26.9995 25.8412 24.5207 31.6276C23.2855 34.511 21.8483 37.0548 20.31 38.8513C18.743 40.6815 17.281 41.5 16 41.5C14.719 41.5 13.257 40.6815 11.69 38.8513C10.1517 37.0548 8.71451 34.511 7.47932 31.6276C5.00051 25.8412 3.5 19.085 3.5 15.1579C3.5 7.50039 9.20644 1.5 16 1.5C22.7936 1.5 28.5 7.50039 28.5 15.1579Z" fill="white" stroke="#152C58" stroke-width="3"/>
<circle cx="16" cy="15" r="4.5" stroke="#FF498B" stroke-width="3"/>
</svg>
