<svg width="48" height="48" viewBox="0 0 48 48" fill="none" xmlns="http://www.w3.org/2000/svg">
<mask id="path-1-inside-1" fill="white">
<path fill-rule="evenodd" clip-rule="evenodd" d="M19.079 8C17.8285 8 16.7091 8.77572 16.27 9.94663L13.625 17H8C3.58172 17 0 20.5817 0 25V37C0 41.4183 3.58172 45 8 45H40C44.4183 45 48 41.4183 48 37V25C48 20.5817 44.4183 17 40 17H35.375L32.73 9.94663C32.2909 8.77572 31.1715 8 29.921 8H19.079Z"/>
</mask>
<path d="M16.27 9.94663L14.3974 9.24438L14.3974 9.24438L16.27 9.94663ZM13.625 17V19H15.011L15.4977 17.7022L13.625 17ZM35.375 17L33.5023 17.7022L33.989 19H35.375V17ZM32.73 9.94663L30.8573 10.6489L30.8573 10.6489L32.73 9.94663ZM18.1427 10.6489C18.289 10.2586 18.6622 10 19.079 10V6C16.9948 6 15.1292 7.29286 14.3974 9.24438L18.1427 10.6489ZM15.4977 17.7022L18.1427 10.6489L14.3974 9.24438L11.7523 16.2978L15.4977 17.7022ZM8 19H13.625V15H8V19ZM2 25C2 21.6863 4.68629 19 8 19V15C2.47715 15 -2 19.4772 -2 25H2ZM2 37V25H-2V37H2ZM8 43C4.68629 43 2 40.3137 2 37H-2C-2 42.5228 2.47715 47 8 47V43ZM40 43H8V47H40V43ZM46 37C46 40.3137 43.3137 43 40 43V47C45.5228 47 50 42.5228 50 37H46ZM46 25V37H50V25H46ZM40 19C43.3137 19 46 21.6863 46 25H50C50 19.4772 45.5228 15 40 15V19ZM35.375 19H40V15H35.375V19ZM30.8573 10.6489L33.5023 17.7022L37.2477 16.2978L34.6026 9.24438L30.8573 10.6489ZM29.921 10C30.3378 10 30.711 10.2586 30.8573 10.6489L34.6026 9.24438C33.8708 7.29286 32.0052 6 29.921 6V10ZM19.079 10H29.921V6H19.079V10Z" fill="#152C58" mask="url(#path-1-inside-1)"/>
<circle cx="24" cy="28" r="6.5" stroke="#FF498B" stroke-width="3"/>
<path d="M36 23C42.0882 23 43.1875 23 42.9761 23" stroke="#152C58" stroke-width="3" stroke-linecap="round"/>
</svg>
