<svg width="28" height="30" viewBox="0 0 28 30" fill="none" xmlns="http://www.w3.org/2000/svg">
<path d="M11.0489 1.07769C11.3483 0.156376 12.6517 0.156375 12.9511 1.07769L15.8167 9.89735C15.9506 10.3094 16.3346 10.5883 16.7678 10.5883H26.0413C27.0101 10.5883 27.4128 11.8279 26.6291 12.3973L19.1267 17.8482C18.7762 18.1028 18.6295 18.5542 18.7634 18.9662L21.6291 27.7859C21.9284 28.7072 20.874 29.4733 20.0902 28.9039L12.5878 23.4531C12.2373 23.1984 11.7627 23.1984 11.4122 23.4531L3.90976 28.9039C3.12605 29.4733 2.07157 28.7072 2.37092 27.7859L5.2366 18.9662C5.37048 18.5542 5.22382 18.1028 4.87333 17.8482L-2.62912 12.3973C-3.41283 11.8279 -3.01006 10.5883 -2.04133 10.5883H7.23221C7.66543 10.5883 8.04939 10.3094 8.18326 9.89735L11.0489 1.07769Z" fill="#FFCC47"/>
</svg>
